# xmcd
#
# Track frame offsets:
#	150
#	8514
#	24284
#	41555
#	56267
#	76441
#	102405
#	125159
#	142291
#	161850
#	186240
#	204947
#	214022
#	233195
#	253140
#	266802
#
# Disc length: 3785 seconds
#
# Revision: 0
# Processed by: cddbd v1.4PL0 Copyright (c) Steve Scherf et al.
# Submitted via: EasyCDDAExtractor 4.6.9.1
#
DISCID=e50ec710
DTITLE=Alicia Keys - Songs In A Minor
DYEAR=2001
DGENRE=Blues
TTITLE0=Piano and I
TTITLE1=Girlfriend
TTITLE2=How Come You Don't Call Me
TTITLE3=Fallin'
TTITLE4=Troubles
TTITLE5=Rock With You
TTITLE6=A Womans Worth
TTITLE7=Jane Doe
TTITLE8=Goodbey
TTITLE9=The Life
TTITLE10=Mr.Mann
TTITLE11=Never Felt This Way
TTITLE12=Butterflyz
TTITLE13=Why Do I Feel So Sad
TTITLE14=Caged Bird
TTITLE15=Loving You (Hidden Track)
EXTD=
EXTT0=
EXTT1=
EXTT2=
EXTT3=
EXTT4=
EXTT5=
EXTT6=
EXTT7=
EXTT8=
EXTT9=
EXTT10=
EXTT11=
EXTT12=
EXTT13=
EXTT14=
EXTT15=
PLAYORDER=
